<svg width="51" height="51" viewBox="0 0 51 51" fill="none" xmlns="http://www.w3.org/2000/svg">
<path d="M48.748 25.374C48.748 29.9969 47.3772 34.5161 44.8088 38.3599C42.2404 42.2037 38.5899 45.1996 34.3189 46.9688C30.0478 48.7379 25.3481 49.2008 20.814 48.2989C16.2799 47.397 12.115 45.1708 8.8461 41.9019C5.57718 38.633 3.35103 34.4682 2.44914 29.934C1.54724 25.3999 2.01013 20.7002 3.77925 16.4292C5.54837 12.1581 8.54428 8.5076 12.3881 5.93923C16.2319 3.37086 20.7511 2 25.374 2C31.5732 2 37.5185 4.46261 41.9019 8.84609C46.2854 13.2296 48.748 19.1748 48.748 25.374V25.374Z" stroke="#EF4EE8" stroke-width="3" stroke-linecap="round" stroke-linejoin="round"/>
<path d="M25.374 34.7238L34.7239 25.374L25.374 16.0242" stroke="#EF4EE8" stroke-width="3" stroke-linecap="round" stroke-linejoin="round"/>
<path d="M16.0242 25.374H34.7238" stroke="#EF4EE8" stroke-width="3" stroke-linecap="round" stroke-linejoin="round"/>
</svg>
