<svg width="75" height="69" viewBox="0 0 75 69" fill="none" xmlns="http://www.w3.org/2000/svg">
<path d="M2.48145 13.2148H72.5187" stroke="#1826AA" stroke-width="4" stroke-miterlimit="10"/>
<path d="M37.3748 57.9151V49.71" stroke="#1826AA" stroke-width="6" stroke-miterlimit="10"/>
<path d="M37.3743 32.2582V23.74" stroke="#1826AA" stroke-width="6" stroke-miterlimit="10"/>
<path d="M48.6218 53.8124L46.6987 51.758L42.9028 47.7158" stroke="#1826AA" stroke-width="6" stroke-miterlimit="10"/>
<path d="M31.0008 35.0572L25.1001 28.772" stroke="#1826AA" stroke-width="6" stroke-miterlimit="10"/>
<path d="M54.5027 40.9893H46.0647" stroke="#1826AA" stroke-width="6" stroke-miterlimit="10"/>
<path d="M28.6844 40.9893H20.4983" stroke="#1826AA" stroke-width="6" stroke-miterlimit="10"/>
<path d="M49.1255 28.772L43.4568 34.754" stroke="#1826AA" stroke-width="6" stroke-miterlimit="10"/>
<path d="M31.474 47.396L27.3357 51.7613L25.5732 53.6208" stroke="#1826AA" stroke-width="6" stroke-miterlimit="10"/>
<path d="M37.3742 50.0636C42.3681 50.0636 46.4164 46.001 46.4164 40.9894C46.4164 35.9779 42.3681 31.9153 37.3742 31.9153C32.3804 31.9153 28.332 35.9779 28.332 40.9894C28.332 46.001 32.3804 50.0636 37.3742 50.0636Z" stroke="#1826AA" stroke-width="6" stroke-miterlimit="10"/>
<path d="M69.6731 2.49023H5.32698C3.75543 2.49023 2.48145 3.76873 2.48145 5.34583V63.6543C2.48145 65.2314 3.75543 66.5099 5.32698 66.5099H69.6731C71.2447 66.5099 72.5187 65.2314 72.5187 63.6543V5.34583C72.5187 3.76873 71.2447 2.49023 69.6731 2.49023Z" stroke="#1826AA" stroke-width="4" stroke-miterlimit="10"/>
</svg>
