<svg xmlns="http://www.w3.org/2000/svg" width="53.762" height="53.762" viewBox="0 0 53.762 53.762">
  <path id="Icon_awesome-facebook-square" data-name="Icon awesome-facebook-square" d="M48,2.25H5.76A5.76,5.76,0,0,0,0,8.01V50.252a5.76,5.76,0,0,0,5.76,5.76H22.231V37.734H14.67v-8.6h7.56V22.574C22.231,15.116,26.671,11,33.471,11a45.8,45.8,0,0,1,6.663.581V18.9H36.382c-3.7,0-4.851,2.294-4.851,4.648v5.586h8.254l-1.32,8.6H31.531V56.012H48a5.76,5.76,0,0,0,5.76-5.76V8.01A5.76,5.76,0,0,0,48,2.25Z" transform="translate(0 -2.25)" fill="#fdf5e2"/>
</svg>
