<svg width="180" height="181" viewBox="0 0 180 181" fill="none" xmlns="http://www.w3.org/2000/svg">
<path d="M158.619 144.182C150.809 154.391 140.752 162.661 129.229 168.349C117.706 174.037 105.027 176.99 92.1778 176.978C41.1044 176.978 6.08866 135.726 4.00024 94.4746H39.6317C41.9927 96.255 44.4609 97.8884 47.0223 99.3658C50.0133 101.024 52.2921 101.944 54.0237 104.68C54.7198 105.774 55.333 107.175 56.1945 114.097C57.222 122.313 56.6583 122.835 57.6438 124.966C59.6322 129.26 62.4328 128.257 66.3352 132.701C70.3951 137.318 71.547 143.154 73.0962 151.055C73.8833 155.034 74.0572 157.761 75.9947 161.691C77.362 164.46 79.2175 168.224 81.5458 168.207C85.4733 168.182 89.0029 157.396 90.2373 152.265C91.1653 148.41 91.0409 146.736 92.6485 143.809C94.662 140.159 96.642 139.515 99.6499 136.324C101.572 134.285 107.571 127.923 106.9 121.344C106.378 116.286 102.111 113.062 97.7194 109.754C95.4076 108.004 87.7021 102.193 77.445 102.5C70.5181 102.716 69.2837 105.51 65.1244 103.95C61.015 102.417 58.5873 98.3213 57.311 94.4746H119.57C120.466 97.9816 122.672 101.011 125.734 102.939C131.965 106.603 137.159 100.875 142.86 104.63C146.87 107.283 149.456 113.542 148.643 118.383C148.254 120.73 147.119 122.454 146.953 126.591C146.853 129.351 147.335 129.235 147.203 131.656C146.903 136.871 144.61 138.52 145.513 141.314C146.192 143.419 148.173 144.53 148.885 144.928C151.261 146.255 154.684 145.897 158.619 144.182Z" stroke="#559813" stroke-width="7" stroke-linecap="round" stroke-linejoin="round"/>
<path d="M175.885 94.4746C175.646 112.475 169.588 129.913 158.619 144.182C154.684 145.898 151.261 146.255 148.884 144.928C148.171 144.528 146.191 143.419 145.511 141.313C144.608 138.52 146.903 136.87 147.201 131.655C147.334 129.235 146.852 129.351 146.952 126.59C147.117 122.454 148.251 120.729 148.642 118.383C149.454 113.541 146.869 107.283 142.858 104.629C137.158 100.874 131.964 106.603 125.732 102.938C122.671 101.01 120.465 97.9812 119.569 94.4746H175.885Z" stroke="#559813" stroke-width="7" stroke-linecap="round" stroke-linejoin="round"/>
<path d="M99.6508 136.323C96.6433 139.515 94.6629 140.161 92.6494 143.809C91.0423 146.736 91.1662 148.409 90.2382 152.265C89.0038 157.396 85.4742 168.182 81.5467 168.206C79.2184 168.223 77.3624 164.459 75.9956 161.691C74.0566 157.761 73.8827 155.034 73.0971 151.054C71.5479 143.154 70.3985 137.318 66.3361 132.7C62.4337 128.256 59.6331 129.26 57.6447 124.965C56.6587 122.835 57.2219 122.313 56.1954 114.097C55.3339 107.175 54.7207 105.774 54.0246 104.68C52.293 101.944 50.0142 101.023 47.0232 99.3653C44.4618 97.8879 41.9936 96.2545 39.6326 94.4741H57.3138C58.5897 98.3208 61.0174 102.416 65.1273 103.95C69.2866 105.509 70.521 102.715 77.4479 102.5C87.705 102.193 95.4105 108.005 97.7223 109.754C102.114 113.061 106.381 116.286 106.903 121.343C107.572 127.925 101.573 134.284 99.6508 136.323Z" stroke="#559813" stroke-width="7" stroke-linecap="round" stroke-linejoin="round"/>
<path d="M32.1653 60.4287V92.2294" stroke="#559813" stroke-width="7" stroke-linecap="round" stroke-linejoin="round"/>
<path d="M32.1655 71.8334C42.4552 71.8334 50.7968 63.4873 50.7968 53.1917C50.7968 42.8962 42.4552 34.55 32.1655 34.55C21.8757 34.55 13.5342 42.8962 13.5342 53.1917C13.5342 63.4873 21.8757 71.8334 32.1655 71.8334Z" stroke="#559813" stroke-width="7" stroke-linecap="round" stroke-linejoin="round"/>
<path d="M30.4384 86.7398L17.8774 77.314" stroke="#559813" stroke-width="7" stroke-linecap="round" stroke-linejoin="round"/>
<path d="M152.569 59.3835V92.2273" stroke="#559813" stroke-width="7" stroke-linecap="round"/>
<path d="M152.569 72.1082C161.135 72.1082 168.079 65.1605 168.079 56.5901C168.079 48.0197 161.135 41.072 152.569 41.072C144.004 41.072 137.06 48.0197 137.06 56.5901C137.06 65.1605 144.004 72.1082 152.569 72.1082Z" stroke="#559813" stroke-width="7" stroke-linecap="round" stroke-linejoin="round"/>
<path d="M152.569 86.2984L167.56 78.3606" stroke="#559813" stroke-width="7" stroke-linecap="round" stroke-linejoin="round"/>
<path d="M121.675 52.4586C121.674 57.1301 120.409 61.7143 118.015 65.7246C115.62 69.7348 112.185 73.0215 108.073 75.2358C103.962 77.4501 99.3287 78.5095 94.6644 78.3014C90.0001 78.0933 85.4791 76.6255 81.5813 74.0539C77.6834 71.4823 74.5541 67.9027 72.5256 63.6951C70.497 59.4875 69.6448 54.8089 70.0595 50.1558C70.4741 45.5027 72.1401 41.0487 74.8807 37.2666C77.6212 33.4845 81.334 30.5153 85.6251 28.6742C83.602 26.6556 82.223 24.0817 81.6627 21.2784C81.1024 18.4752 81.3859 15.5686 82.4775 12.9267C83.5691 10.2848 85.4195 8.02635 87.7946 6.43728C90.1697 4.84822 92.9626 4 95.8198 4C98.677 4 101.47 4.84822 103.845 6.43728C106.22 8.02635 108.071 10.2848 109.162 12.9267C110.254 15.5686 110.537 18.4752 109.977 21.2784C109.417 24.0817 108.038 26.6556 106.014 28.6742C110.663 30.672 114.625 33.99 117.408 38.2174C120.192 42.4448 121.675 47.3962 121.675 52.4586V52.4586Z" stroke="#559813" stroke-width="7" stroke-linecap="round" stroke-linejoin="round"/>
<path d="M95.8199 42.8784L95.6895 93.4748" stroke="#559813" stroke-width="7" stroke-linecap="round" stroke-linejoin="round"/>
<path d="M97.228 62.7626L107.864 51.5027" stroke="#559813" stroke-width="7" stroke-linecap="round" stroke-linejoin="round"/>
</svg>
