<svg xmlns="http://www.w3.org/2000/svg" width="56.038" height="55.399" viewBox="0 0 56.038 55.399">
  <path id="Icon_awesome-linkedin" data-name="Icon awesome-linkedin" d="M52.035,2.25H3.99A4,4,0,0,0,0,6.244V53.655a4,4,0,0,0,3.99,3.994H52.035a4.007,4.007,0,0,0,4-3.994V6.244A4.007,4.007,0,0,0,52.035,2.25Zm-35.1,47.485H8.631V23.3h8.318V49.735ZM12.784,19.686A4.761,4.761,0,1,1,17.6,14.925a4.791,4.791,0,0,1-4.816,4.761ZM48.07,49.735H39.765V36.875c0-3.067-.063-7.012-4.315-7.012-4.328,0-4.991,3.339-4.991,6.789V49.735H22.153V23.3H30.12v3.611h.113A8.767,8.767,0,0,1,38.1,22.641c8.406,0,9.969,5.478,9.969,12.6Z" transform="translate(0 -2.25)" fill="#fdf5e2"/>
</svg>
