<svg id="Group_375" data-name="Group 375" xmlns="http://www.w3.org/2000/svg" width="496.291" height="307.613" viewBox="0 0 496.291 307.613">
  <path id="Path_454" data-name="Path 454" d="M425.385,37.3a23.609,23.609,0,0,1-23.609,23.609H23.639a23.609,23.609,0,1,1,0-47.217H401.777A23.609,23.609,0,0,1,425.385,37.3Z" transform="translate(-0.03 57.236)" fill="#fdf5e2"/>
  <path id="Path_455" data-name="Path 455" d="M108.735,44.389A23.609,23.609,0,0,1,85.126,68H37.809a23.609,23.609,0,0,1,0-47.217H85.126a23.609,23.609,0,0,1,23.609,23.609Z" transform="translate(127.55 121.072)" fill="#fdf5e2"/>
  <path id="Path_456" data-name="Path 456" d="M431.27,101.135a91.434,91.434,0,0,1-3,23.609,90.034,90.034,0,0,1-10,23.709,94.335,94.335,0,0,1-81.83,47.217H277.614A35.413,35.413,0,0,0,242.2,231.182V286.2h0a18.406,18.406,0,0,1,0,4.1,23.709,23.709,0,1,1-47.417.4V219.378a69.024,69.024,0,0,1,4.1-23.709,70.726,70.726,0,0,1,56.321-46.417,60.022,60.022,0,0,1,10.5-.8h70.926a47.317,47.317,0,0,0,0-94.535H29.423a23.709,23.709,0,0,1,0-47.317H336.735a94.234,94.234,0,0,1,81.83,47.317,88.93,88.93,0,0,1,10,23.609,92.532,92.532,0,0,1,2.7,23.609Z" transform="translate(65.01 -6.6)" fill="#fdf5e2"/>
</svg>
