<svg width="180" height="158" viewBox="0 0 180 158" fill="none" xmlns="http://www.w3.org/2000/svg">
<path d="M143.948 36.1828C143.055 37.117 136.713 41.6684 127.624 41.4434C125.892 41.3436 124.173 41.0813 122.49 40.6601C120.686 40.1536 116.764 38.1749 112.471 34.4158C103.754 40.6719 96.4191 46.0029 90.8224 50.092C83.9045 55.1473 81.7835 56.7416 78.375 57.6598C68.8824 60.2192 60.1483 56.3545 53.7653 51.713C53.5779 51.5773 53.4198 51.4054 53.3003 51.2074C53.1808 51.0094 53.1025 50.7895 53.0698 50.5606C53.0372 50.3318 53.051 50.0987 53.1104 49.8753C53.1698 49.6519 53.2736 49.4427 53.4156 49.2602C59.3097 41.7186 87.022 14.6552 96.2376 10.0909C105.517 5.49414 131.778 -2.46556 153.605 12.7932C170.559 24.6448 179.71 47.4036 174.713 67.3935C172.854 74.594 169.333 81.2595 164.43 86.8555C152.162 74.4227 124.741 46.8533 112.474 34.4195" stroke="#E92447" stroke-width="7" stroke-linecap="round" stroke-linejoin="round"/>
<path d="M54.3451 79.566L35.8023 98.087C32.6769 101.209 32.6769 106.27 35.8023 109.392L39.5835 113.169C42.709 116.291 47.7763 116.291 50.9018 113.169L69.4446 94.6477C72.57 91.5259 72.57 86.4645 69.4446 83.3427L65.6634 79.566C62.5379 76.4442 57.4706 76.4442 54.3451 79.566Z" stroke="#E92447" stroke-width="7" stroke-linecap="round" stroke-linejoin="round"/>
<path d="M69.0965 94.3001L50.5537 112.821C47.4282 115.943 47.4282 121.004 50.5537 124.126L54.3349 127.903C57.4603 131.025 62.5277 131.025 65.6531 127.903L84.1959 109.382C87.3214 106.26 87.3214 101.199 84.1959 98.0769L80.4147 94.3001C77.2893 91.1783 72.2219 91.1783 69.0965 94.3001Z" stroke="#E92447" stroke-width="7" stroke-linecap="round" stroke-linejoin="round"/>
<path d="M84.196 109.382L65.6532 127.903C62.5277 131.024 62.5277 136.086 65.6532 139.208L69.4343 142.984C72.5598 146.106 77.6272 146.106 80.7526 142.984L99.2954 124.463C102.421 121.342 102.421 116.28 99.2954 113.158L95.5142 109.382C92.3888 106.26 87.3214 106.26 84.196 109.382Z" stroke="#E92447" stroke-width="7" stroke-linecap="round" stroke-linejoin="round"/>
<path d="M113.065 140.874L102.918 151.01C101.927 152 100.75 152.786 99.4541 153.322C98.1587 153.857 96.7703 154.133 95.3682 154.133C93.9661 154.133 92.5777 153.857 91.2823 153.322C89.9869 152.786 88.8099 152 87.8185 151.01V151.01C86.827 150.019 86.0405 148.844 85.5039 147.55C84.9673 146.256 84.6912 144.869 84.6912 143.469C84.6912 142.068 84.9673 140.682 85.5039 139.388C86.0405 138.094 86.827 136.918 87.8185 135.928L97.9661 125.792C98.9576 124.802 100.135 124.016 101.43 123.48C102.725 122.945 104.114 122.669 105.516 122.669C106.918 122.669 108.306 122.945 109.602 123.48C110.897 124.016 112.074 124.802 113.066 125.792C114.057 126.783 114.843 127.958 115.38 129.252C115.917 130.546 116.193 131.933 116.193 133.333C116.193 134.734 115.917 136.12 115.38 137.414C114.843 138.708 114.057 139.884 113.066 140.874H113.065Z" stroke="#E92447" stroke-width="7" stroke-linecap="round" stroke-linejoin="round"/>
<path d="M117.827 129.341C118.48 129.509 123.583 130.721 127.699 127.481C131.537 124.46 132.916 118.83 130.865 113.713C132.966 114.411 135.221 114.511 137.375 114.002C139.53 113.493 141.501 112.395 143.066 110.831C144.632 109.267 145.731 107.299 146.241 105.147C146.751 102.995 146.651 100.743 145.953 98.6446C148.236 99.1005 153.947 100.414 157.978 96.4744C163.473 91.1024 161.667 84.0566 158.05 80.4004" stroke="#E92447" stroke-width="7" stroke-linecap="round" stroke-linejoin="round"/>
<path d="M130.866 113.714L97.7515 81.0122" stroke="#E92447" stroke-width="7" stroke-miterlimit="10" stroke-linecap="round"/>
<path d="M145.953 98.6447L113.278 66.0205" stroke="#E92447" stroke-width="7" stroke-miterlimit="10" stroke-linecap="round"/>
<path d="M35.2082 108.845C30.7635 104.661 18.623 92.5463 14.6107 87.9298C5.95731 77.9732 2.51035 64.0336 4.37183 50.9786C4.43304 50.5521 4.50101 50.1212 4.57575 49.6861C7.11199 34.9521 16.0959 26.0923 20.493 21.7568C27.7253 14.5863 36.691 9.40557 46.5196 6.71774C50.921 5.58521 62.313 2.812 75.5574 7.1475C79.9974 8.60647 84.2001 10.7055 88.0326 13.378" stroke="#E92447" stroke-width="7" stroke-miterlimit="10"/>
</svg>
