<svg width="30" height="26" viewBox="0 0 30 26" fill="none" xmlns="http://www.w3.org/2000/svg">
<path d="M1.71758 7.33355C1.58827 7.59984 1.54509 7.90044 1.59415 8.19287C1.88217 9.8288 3.24247 11.198 4.86446 11.2009C6.58149 11.2038 8.10637 9.66342 8.27466 7.8941C8.27372 8.76335 8.61182 9.598 9.21576 10.2174C9.81971 10.8367 10.6409 11.1909 11.5016 11.2033C12.3622 11.2157 13.1931 10.8853 13.8143 10.2836C14.4355 9.68192 14.797 8.85735 14.8206 7.98842C14.8886 8.79091 15.2353 9.54327 15.7996 10.1124C16.3639 10.6816 17.1093 11.0309 17.9041 11.0985C18.6988 11.1661 19.4915 10.9476 20.1422 10.4818C20.7928 10.016 21.2593 9.33283 21.4592 8.55312C21.4646 8.53344 21.4764 8.51617 21.4927 8.50406C21.509 8.49196 21.5289 8.48571 21.5491 8.48633C21.5694 8.48696 21.5888 8.49441 21.6043 8.50749C21.6199 8.52058 21.6306 8.53855 21.6349 8.55853C21.8127 9.29671 22.2262 9.95525 22.8115 10.4325C23.3969 10.9097 24.1215 11.179 24.8735 11.1989C25.6255 11.2188 26.3631 10.9882 26.9724 10.5426C27.5817 10.097 28.0288 9.46123 28.2446 8.73347C28.3662 8.322 28.3313 7.87952 28.1467 7.4927C27.2797 5.66022 26.1157 3.23727 25.8524 2.71412C25.6595 2.2965 25.3969 1.91556 25.0759 1.58803C24.4908 1.00172 23.691 1.0894 23.1165 1.05907H6.04946C5.64623 1.05503 5.25006 1.16592 4.90642 1.37902C4.57184 1.57212 4.3091 1.87059 4.15838 2.22878L1.71758 7.33355Z" stroke="#FDAD27" stroke-width="2" stroke-miterlimit="10"/>
<path d="M9.76868 1.05725L8.11377 8.68844" stroke="#FDAD27" stroke-width="2" stroke-miterlimit="10"/>
<path d="M14.8193 7.98806L14.7983 1.15552" stroke="#FDAD27" stroke-width="2" stroke-miterlimit="10"/>
<path d="M21.6821 8.77136L19.8198 1.19336" stroke="#FDAD27" stroke-width="2" stroke-miterlimit="10"/>
<path d="M3.30884 11.0245V22.9918C3.30878 23.211 3.3515 23.4281 3.43454 23.6306C3.51759 23.8331 3.63933 24.0172 3.79282 24.1722C3.94631 24.3272 4.12854 24.4501 4.3291 24.534C4.52965 24.6179 4.74462 24.661 4.96169 24.6609H24.8782C25.317 24.6609 25.7378 24.4849 26.0481 24.1716C26.3583 23.8582 26.5326 23.4332 26.5326 22.9901V11.2032" stroke="#FDAD27" stroke-width="2" stroke-miterlimit="10"/>
<path d="M28.1694 6.49117L1.51929 6.48206" stroke="#FDAD27" stroke-width="2"/>
</svg>
