<svg xmlns="http://www.w3.org/2000/svg" width="71.667" height="53.76" viewBox="0 0 71.667 53.76">
  <path id="Icon_ionic-logo-youtube" data-name="Icon ionic-logo-youtube" d="M71.2,16.371C71.2,10.072,66.567,5,60.841,5,53.086,4.64,45.176,4.5,37.1,4.5h-2.52c-8.064,0-15.987.14-23.743.5C5.124,5,.49,10.1.49,16.4c-.35,4.984-.5,9.967-.49,14.951q-.021,7.476.476,14.965c0,6.3,4.634,11.409,10.345,11.409,8.148.378,16.505.546,25,.532q12.767.042,25-.532c5.726,0,10.359-5.11,10.359-11.409.336-5,.49-9.981.476-14.979Q71.7,23.861,71.2,16.371ZM28.979,45.084V17.575l20.3,13.747Z" transform="translate(0 -4.5)" fill="#fdf5e2"/>
</svg>
