<svg width="37" height="35" viewBox="0 0 37 35" fill="none" xmlns="http://www.w3.org/2000/svg">
<g id="Group 613">
<g id="Group 494">
<path id="Path 812" d="M1.86662 10.321C1.70323 10.6668 1.64868 11.0572 1.71066 11.437C2.07458 13.5618 3.7933 15.34 5.84267 15.3438C8.01214 15.3476 9.93881 13.347 10.1514 11.049C10.1503 12.178 10.5774 13.262 11.3405 14.0664C12.1036 14.8708 13.1412 15.3309 14.2286 15.347C15.316 15.3631 16.3658 14.934 17.1507 14.1525C17.9356 13.371 18.3924 12.3001 18.4222 11.1715C18.5081 12.2138 18.9462 13.1909 19.6592 13.9301C20.3722 14.6694 21.314 15.123 22.3181 15.2108C23.3222 15.2986 24.3239 15.0149 25.1459 14.4099C25.968 13.8049 26.5574 12.9176 26.81 11.9049C26.8169 11.8794 26.8318 11.8569 26.8524 11.8412C26.873 11.8255 26.8981 11.8174 26.9236 11.8182C26.9492 11.819 26.9737 11.8287 26.9934 11.8457C27.013 11.8627 27.0266 11.886 27.032 11.912C27.2566 12.8707 27.7791 13.726 28.5187 14.3458C29.2582 14.9656 30.1738 15.3154 31.1239 15.3413C32.0741 15.3671 33.0061 15.0676 33.7759 14.4888C34.5457 13.9101 35.1106 13.0844 35.3833 12.1392C35.5369 11.6048 35.4928 11.0301 35.2596 10.5277C34.1642 8.14768 32.6935 5.00079 32.3608 4.32133C32.1171 3.77893 31.7853 3.28417 31.3797 2.85878C30.6405 2.09729 29.6298 2.21117 28.9041 2.17177H7.33992C6.83044 2.16652 6.32987 2.31055 5.8957 2.58732C5.47295 2.83812 5.14098 3.22577 4.95056 3.69097L1.86662 10.321Z" stroke="#FCF7F4" stroke-width="3" stroke-miterlimit="10"/>
<path id="Line 268" d="M12.0363 2.16748L9.94531 12.0788" stroke="#FCF7F4" stroke-width="3" stroke-miterlimit="10"/>
<path id="Line 269" d="M18.4196 11.1686L18.3931 2.29456" stroke="#FCF7F4" stroke-width="3" stroke-miterlimit="10"/>
<path id="Line 270" d="M27.091 12.1853L24.738 2.34314" stroke="#FCF7F4" stroke-width="3" stroke-miterlimit="10"/>
<path id="Path 813" d="M3.87939 15.1115V30.6543C3.87933 30.939 3.9333 31.221 4.03822 31.484C4.14315 31.7471 4.29696 31.9861 4.4909 32.1874C4.68483 32.3887 4.91508 32.5484 5.16848 32.6573C5.42189 32.7663 5.69349 32.8223 5.96776 32.8222H31.1321C31.6865 32.8222 32.2182 32.5936 32.6102 32.1866C33.0023 31.7796 33.2225 31.2277 33.2225 30.6522V15.3435" stroke="#FCF7F4" stroke-width="3" stroke-miterlimit="10"/>
</g>
<path id="Path 814" d="M35.2889 9.22563L1.6167 9.21411" stroke="#FCF7F4" stroke-width="3"/>
</g>
</svg>
