<svg width="28" height="25" viewBox="0 0 28 25" fill="none" xmlns="http://www.w3.org/2000/svg">
<g id="Group 613">
<g id="Group 494">
<path id="Path 812" d="M1.1869 7.09369C1.06479 7.35217 1.02402 7.64395 1.07035 7.92779C1.34232 9.51574 2.62683 10.8447 4.15846 10.8476C5.77983 10.8504 7.21975 9.35521 7.37867 7.63779C7.37778 8.48154 7.69704 9.2917 8.26733 9.89289C8.83763 10.4941 9.61307 10.8379 10.4258 10.8499C11.2385 10.862 12.0231 10.5413 12.6096 9.95721C13.1962 9.37316 13.5376 8.57278 13.5599 7.72935C13.6241 8.50829 13.9515 9.23858 14.4844 9.79104C15.0172 10.3435 15.7211 10.6825 16.4716 10.7481C17.222 10.8138 17.9706 10.6017 18.585 10.1496C19.1993 9.69745 19.6399 9.03431 19.8286 8.27748C19.8338 8.25838 19.8449 8.24161 19.8603 8.22986C19.8757 8.21811 19.8945 8.21205 19.9136 8.21265C19.9327 8.21326 19.951 8.22049 19.9657 8.23319C19.9804 8.24589 19.9905 8.26333 19.9945 8.28273C20.1625 8.99925 20.5529 9.63847 21.1056 10.1017C21.6584 10.5649 22.3426 10.8264 23.0527 10.8457C23.7628 10.865 24.4593 10.6411 25.0347 10.2086C25.61 9.77605 26.0322 9.15895 26.236 8.45254C26.3508 8.05314 26.3179 7.62364 26.1436 7.24817C25.3249 5.46945 24.2257 3.11758 23.9771 2.60978C23.795 2.20441 23.547 1.83464 23.2439 1.51673C22.6914 0.947615 21.9361 1.03272 21.3937 1.00328H5.27744C4.89667 0.999356 4.52257 1.107 4.19808 1.31384C3.88214 1.50128 3.63404 1.79099 3.49172 2.13867L1.1869 7.09369Z" stroke="#FDF8F6" stroke-width="2" stroke-miterlimit="10"/>
<path id="Line 268" d="M8.78683 1L7.22412 8.40731" stroke="#FDF8F6" stroke-width="2" stroke-miterlimit="10"/>
<path id="Line 269" d="M13.5574 7.72707L13.5376 1.09497" stroke="#FDF8F6" stroke-width="2" stroke-miterlimit="10"/>
<path id="Line 270" d="M20.0383 8.48691L18.2798 1.13123" stroke="#FDF8F6" stroke-width="2" stroke-miterlimit="10"/>
<path id="Path 813" d="M2.69092 10.6738V22.29C2.69087 22.5028 2.7312 22.7135 2.80962 22.9101C2.88804 23.1067 3.00299 23.2853 3.14793 23.4358C3.29287 23.5862 3.46495 23.7056 3.65433 23.787C3.84372 23.8684 4.0467 23.9102 4.25168 23.9102H23.0585C23.4729 23.9102 23.8703 23.7393 24.1633 23.4352C24.4562 23.131 24.6209 22.7185 24.6209 22.2884V10.8473" stroke="#FDF8F6" stroke-width="2" stroke-miterlimit="10"/>
</g>
<path id="Path 814" d="M26.1653 6.27497L1 6.26636" stroke="#FDF8F6" stroke-width="2"/>
</g>
</svg>
