<svg width="37" height="35" viewBox="0 0 37 35" fill="none" xmlns="http://www.w3.org/2000/svg">
<g id="Group 613">
<g id="Group 494">
<path id="Path 812" d="M1.87126 10.321C1.70787 10.6668 1.65332 11.0572 1.7153 11.437C2.07922 13.5618 3.79794 15.34 5.84731 15.3438C8.01678 15.3476 9.94345 13.347 10.1561 11.049C10.1549 12.178 10.5821 13.262 11.3452 14.0664C12.1082 14.8708 13.1458 15.3309 14.2332 15.347C15.3207 15.3631 16.3705 14.934 17.1553 14.1525C17.9402 13.371 18.397 12.3001 18.4269 11.1715C18.5127 12.2138 18.9508 13.1909 19.6638 13.9301C20.3768 14.6694 21.3186 15.123 22.3227 15.2108C23.3269 15.2986 24.3285 15.0149 25.1506 14.4099C25.9726 13.8049 26.5621 12.9176 26.8146 11.9049C26.8215 11.8794 26.8364 11.8569 26.857 11.8412C26.8776 11.8255 26.9027 11.8174 26.9283 11.8182C26.9538 11.819 26.9784 11.8287 26.998 11.8457C27.0177 11.8627 27.0312 11.886 27.0366 11.912C27.2613 12.8707 27.7837 13.726 28.5233 14.3458C29.2629 14.9656 30.1784 15.3154 31.1286 15.3413C32.0787 15.3671 33.0107 15.0676 33.7805 14.4888C34.5503 13.9101 35.1152 13.0844 35.388 12.1392C35.5416 11.6048 35.4975 11.0301 35.2642 10.5277C34.1689 8.14768 32.6981 5.00079 32.3654 4.32133C32.1218 3.77893 31.7899 3.28417 31.3844 2.85878C30.6451 2.09729 29.6344 2.21117 28.9087 2.17177H7.34456C6.83508 2.16652 6.33451 2.31055 5.90034 2.58732C5.47759 2.83812 5.14562 3.22577 4.9552 3.69097L1.87126 10.321Z" stroke="#2A438F" stroke-width="3" stroke-miterlimit="10"/>
<path id="Line 268" d="M12.0407 2.16748L9.94971 12.0788" stroke="#2A438F" stroke-width="3" stroke-miterlimit="10"/>
<path id="Line 269" d="M18.424 11.1686L18.3975 2.29456" stroke="#2A438F" stroke-width="3" stroke-miterlimit="10"/>
<path id="Line 270" d="M27.0957 12.1853L24.7427 2.34314" stroke="#2A438F" stroke-width="3" stroke-miterlimit="10"/>
<path id="Path 813" d="M3.88428 15.1115V30.6543C3.88421 30.939 3.93818 31.221 4.04311 31.484C4.14803 31.7471 4.30185 31.9861 4.49578 32.1874C4.68972 32.3887 4.91996 32.5484 5.17337 32.6573C5.42677 32.7663 5.69837 32.8223 5.97264 32.8222H31.1369C31.6914 32.8222 32.2231 32.5936 32.6151 32.1866C33.0071 31.7796 33.2274 31.2277 33.2274 30.6522V15.3435" stroke="#2A438F" stroke-width="3" stroke-miterlimit="10"/>
</g>
<path id="Path 814" d="M35.2937 9.22563L1.62158 9.21411" stroke="#2A438F" stroke-width="3"/>
</g>
</svg>
