<svg width="51" height="50" viewBox="0 0 51 50" fill="none" xmlns="http://www.w3.org/2000/svg">
<g id="Group 614">
<circle id="Ellipse 123" cx="25.4766" cy="24.793" r="23.709" stroke="#2A438F" stroke-width="2"/>
<g id="Group 613">
<g id="Group 494">
<path id="Path 812" d="M13.0136 19.431C12.8915 19.6894 12.8507 19.9812 12.897 20.2651C13.169 21.853 14.4535 23.182 15.9851 23.1848C17.6065 23.1877 19.0464 21.6925 19.2053 19.9751C19.2044 20.8188 19.5237 21.629 20.094 22.2302C20.6643 22.8314 21.4397 23.1752 22.2524 23.1872C23.0651 23.1993 23.8497 22.8785 24.4363 22.2945C25.0229 21.7104 25.3643 20.9101 25.3866 20.0666C25.4507 20.8456 25.7782 21.5759 26.3111 22.1283C26.8439 22.6808 27.5478 23.0198 28.2982 23.0854C29.0487 23.151 29.7973 22.939 30.4116 22.4869C31.026 22.0347 31.4665 21.3716 31.6553 20.6148C31.6604 20.5957 31.6716 20.5789 31.687 20.5671C31.7024 20.5554 31.7211 20.5493 31.7402 20.5499C31.7593 20.5505 31.7777 20.5578 31.7924 20.5705C31.807 20.5832 31.8172 20.6006 31.8212 20.62C31.9891 21.3365 32.3796 21.9758 32.9323 22.439C33.485 22.9022 34.1693 23.1636 34.8794 23.183C35.5895 23.2023 36.286 22.9784 36.8613 22.5459C37.4367 22.1133 37.8589 21.4962 38.0627 20.7898C38.1775 20.3904 38.1445 19.9609 37.9702 19.5854C37.1516 17.8067 36.0524 15.4549 35.8037 14.9471C35.6216 14.5417 35.3736 14.1719 35.0706 13.854C34.5181 13.2849 33.7627 13.37 33.2203 13.3406H17.1041C16.7233 13.3366 16.3492 13.4443 16.0247 13.6511C15.7088 13.8386 15.4607 14.1283 15.3184 14.476L13.0136 19.431Z" stroke="#2A438F" stroke-width="2" stroke-miterlimit="10"/>
<path id="Line 268" d="M20.6135 13.3373L19.0508 20.7446" stroke="#2A438F" stroke-width="2" stroke-miterlimit="10"/>
<path id="Line 269" d="M25.3841 20.0643L25.3643 13.4323" stroke="#2A438F" stroke-width="2" stroke-miterlimit="10"/>
<path id="Line 270" d="M31.865 20.8242L30.1064 13.4685" stroke="#2A438F" stroke-width="2" stroke-miterlimit="10"/>
<path id="Path 813" d="M14.5176 23.0111V34.6273C14.5175 34.84 14.5579 35.0507 14.6363 35.2473C14.7147 35.4439 14.8297 35.6226 14.9746 35.773C15.1195 35.9235 15.2916 36.0428 15.481 36.1242C15.6704 36.2056 15.8734 36.2475 16.0783 36.2475H34.8852C35.2995 36.2475 35.6969 36.0766 35.9899 35.7724C36.2829 35.4683 36.4475 35.0558 36.4475 34.6256V23.1845" stroke="#2A438F" stroke-width="2" stroke-miterlimit="10"/>
</g>
<path id="Path 814" d="M37.992 18.6122L12.8267 18.6036" stroke="#2A438F" stroke-width="2"/>
</g>
</g>
</svg>
