<svg width="50" height="50" viewBox="0 0 50 50" fill="none" xmlns="http://www.w3.org/2000/svg">
<g id="Group 614">
<circle id="Ellipse 123" cx="25.0352" cy="25.0095" r="23.709" fill="#2A438F" stroke="#2A438F" stroke-width="2"/>
<g id="Group 613">
<g id="Group 494">
<path id="Path 812" d="M12.5722 19.6475C12.45 19.906 12.4093 20.1978 12.4556 20.4816C12.7276 22.0696 14.0121 23.3986 15.5437 23.4014C17.1651 23.4042 18.605 21.909 18.7639 20.1916C18.763 21.0354 19.0823 21.8455 19.6526 22.4467C20.2229 23.0479 20.9983 23.3917 21.811 23.4038C22.6237 23.4158 23.4083 23.0951 23.9949 22.511C24.5815 21.927 24.9229 21.1266 24.9452 20.2832C25.0093 21.0621 25.3368 21.7924 25.8696 22.3449C26.4025 22.8973 27.1064 23.2364 27.8568 23.302C28.6073 23.3676 29.3559 23.1556 29.9702 22.7034C30.5846 22.2513 31.0251 21.5881 31.2139 20.8313C31.219 20.8122 31.2302 20.7954 31.2456 20.7837C31.261 20.7719 31.2797 20.7659 31.2988 20.7665C31.3179 20.7671 31.3363 20.7743 31.3509 20.787C31.3656 20.7997 31.3758 20.8172 31.3798 20.8366C31.5477 21.5531 31.9382 22.1923 32.4909 22.6555C33.0436 23.1187 33.7279 23.3802 34.438 23.3995C35.1481 23.4188 35.8446 23.1949 36.4199 22.7624C36.9953 22.3299 37.4175 21.7128 37.6213 21.0064C37.7361 20.607 37.7031 20.1775 37.5288 19.802C36.7102 18.0233 35.611 15.6714 35.3623 15.1636C35.1802 14.7582 34.9322 14.3885 34.6292 14.0706C34.0766 13.5014 33.3213 13.5866 32.7789 13.5571H16.6627C16.2819 13.5532 15.9078 13.6608 15.5833 13.8677C15.2674 14.0551 15.0193 14.3448 14.877 14.6925L12.5722 19.6475Z" fill="#2A438F" stroke="#FDF8F6" stroke-width="2" stroke-miterlimit="10"/>
<path id="Line 268" d="M20.1721 13.5538L18.6094 20.9611" stroke="#FDF8F6" stroke-width="2" stroke-miterlimit="10"/>
<path id="Line 269" d="M24.9427 20.2809L24.9229 13.6488" stroke="#FDF8F6" stroke-width="2" stroke-miterlimit="10"/>
<path id="Line 270" d="M31.4236 21.0407L29.665 13.6851" stroke="#FDF8F6" stroke-width="2" stroke-miterlimit="10"/>
<g id="Path 813">
<path d="M14.0762 23.2277V34.8438C14.0761 35.0566 14.1165 35.2673 14.1949 35.4639C14.2733 35.6605 14.3882 35.8391 14.5332 35.9896C14.6781 36.14 14.8502 36.2594 15.0396 36.3408C15.229 36.4222 15.432 36.4641 15.6369 36.464H34.4438C34.8581 36.464 35.2555 36.2931 35.5485 35.989C35.8415 35.6848 36.0061 35.2723 36.0061 34.8422V23.4011" fill="#2A438F"/>
<path d="M14.0762 23.2277V34.8438C14.0761 35.0566 14.1165 35.2673 14.1949 35.4639C14.2733 35.6605 14.3882 35.8391 14.5332 35.9896C14.6781 36.14 14.8502 36.2594 15.0396 36.3408C15.229 36.4222 15.432 36.4641 15.6369 36.464H34.4438C34.8581 36.464 35.2555 36.2931 35.5485 35.989C35.8415 35.6848 36.0061 35.2723 36.0061 34.8422V23.4011" stroke="#FDF8F6" stroke-width="2" stroke-miterlimit="10"/>
</g>
</g>
<g id="Path 814">
<path d="M37.5506 18.8288L12.3853 18.8202L37.5506 18.8288Z" fill="#2A438F"/>
<path d="M37.5506 18.8288L12.3853 18.8202" stroke="#FDF8F6" stroke-width="2"/>
</g>
</g>
</g>
</svg>
