<svg width="53" height="52" viewBox="0 0 53 52" fill="none" xmlns="http://www.w3.org/2000/svg">
<path d="M3.4831 20.6433C3.66624 20.7179 3.8623 20.7556 4.06004 20.7542C4.25778 20.7529 4.45331 20.7125 4.63541 20.6354L9.13896 18.7349C9.90472 18.4115 10.2639 17.5284 9.94036 16.7623C9.61725 15.9962 8.73385 15.6374 7.96778 15.9605L6.86636 16.4255C10.2841 8.64498 18.0179 3.52884 26.6227 3.52884C36.4611 3.52884 45.0526 10.1814 47.5157 19.7066C47.6914 20.3853 48.3023 20.8358 48.9723 20.8358C49.097 20.8358 49.224 20.8201 49.3503 20.7876C50.1553 20.5793 50.6391 19.7579 50.4309 18.9529C47.6242 8.09833 37.8338 0.517578 26.6227 0.517578C16.762 0.517578 7.90615 6.41383 4.04491 15.3641L3.53671 14.1596C3.2133 13.3938 2.33019 13.0347 1.56413 13.3578C0.797961 13.6813 0.439219 14.5646 0.762328 15.3304L2.66274 19.8339C2.73958 20.0161 2.85157 20.1814 2.99232 20.3202C3.13307 20.4591 3.29981 20.5689 3.483 20.6433H3.4831ZM51.9169 36.7908L50.0165 32.2876C49.8612 31.9196 49.5661 31.6284 49.1962 31.4779C48.8262 31.3277 48.4118 31.3305 48.0439 31.4857L43.5402 33.3866C42.7745 33.7097 42.4153 34.5931 42.7388 35.3592C43.0619 36.1254 43.9454 36.4841 44.7114 36.1607L45.972 35.6286C42.6396 43.6179 34.7978 48.8977 26.0569 48.8977C16.2181 48.8977 7.6266 42.2452 5.16349 32.72C4.95531 31.9147 4.13384 31.4316 3.32893 31.639C2.52392 31.8473 2.04011 32.6687 2.24829 33.4736C5.05488 44.3282 14.8454 51.909 26.0569 51.909C35.9729 51.909 44.873 45.9461 48.699 36.9107L49.1425 37.9616C49.3852 38.5368 49.9431 38.8821 50.5305 38.8821C50.7253 38.8821 50.9242 38.8441 51.1151 38.7633C51.8812 38.4399 52.24 37.5568 51.9169 36.7908Z" fill="#FAF6F3"/>
<path d="M23.3206 42.7862C23.6122 42.8913 23.9291 42.9037 24.228 42.8219C24.527 42.74 24.7933 42.5679 24.9908 42.329L37.6038 27.0726C37.7858 26.8523 37.9014 26.5848 37.9372 26.3014C37.9729 26.0179 37.9273 25.7301 37.8056 25.4716C37.6839 25.2132 37.4912 24.9948 37.25 24.8418C37.0089 24.6888 36.7291 24.6075 36.4435 24.6074H30.9569V10.9567C30.9569 10.6467 30.8613 10.3443 30.683 10.0907C30.5048 9.83708 30.2526 9.64466 29.961 9.53967C29.6693 9.43488 29.3525 9.42258 29.0536 9.50445C28.7547 9.58633 28.4883 9.75839 28.2907 9.99718L15.6778 25.2539C15.4957 25.4741 15.3801 25.7416 15.3443 26.025C15.3086 26.3085 15.3543 26.5962 15.476 26.8547C15.5977 27.1132 15.7904 27.3317 16.0316 27.4847C16.2729 27.6378 16.5527 27.719 16.8384 27.719H22.3249V41.3696C22.3247 41.6795 22.4202 41.982 22.5984 42.2355C22.7766 42.4891 23.0289 42.6814 23.3206 42.7862ZM20.0364 24.7077L27.9457 15.1407V26.113C27.9457 26.9446 28.6197 27.6186 29.4513 27.6186H33.2448L25.3359 37.1858V26.2133C25.3359 25.3817 24.6615 24.7077 23.8303 24.7077H20.0364Z" fill="#FAF6F3"/>
</svg>
