<svg width="50" height="46" viewBox="0 0 50 46" fill="none" xmlns="http://www.w3.org/2000/svg">
<g clip-path="url(#clip0_2071_183)">
<path d="M39.9567 10.8995C39.7169 11.1628 38.0142 12.4457 35.5742 12.3824C35.1092 12.3542 34.6478 12.2803 34.1959 12.1615C33.7114 12.0188 32.6586 11.4609 31.506 10.4013C29.1658 12.1648 27.1967 13.6676 25.6941 14.8203C23.8369 16.2453 23.2675 16.6948 22.3524 16.9536C19.804 17.6751 17.4592 16.5856 15.7456 15.2772C15.6952 15.2389 15.6528 15.1905 15.6207 15.1347C15.5887 15.0789 15.5676 15.0169 15.5588 14.9524C15.5501 14.8879 15.5538 14.8222 15.5698 14.7592C15.5857 14.6962 15.6135 14.6373 15.6517 14.5858C17.234 12.4599 24.6739 4.83101 27.1479 3.54439C29.639 2.24861 36.6894 0.00485403 42.5492 4.30614C47.1007 7.64697 49.5574 14.0624 48.216 19.6974C47.717 21.7271 46.7714 23.6061 45.4553 25.1836C42.1619 21.6789 34.8001 13.9073 31.5067 10.4024" stroke="#FAF6F3" stroke-width="3" stroke-linecap="round" stroke-linejoin="round"/>
<path d="M15.9028 23.1287L10.9248 28.3497C10.0856 29.2296 10.0856 30.6564 10.9248 31.5364L11.9398 32.601C12.7789 33.481 14.1393 33.481 14.9784 32.601L19.9565 27.3802C20.7956 26.5001 20.7956 25.0734 19.9565 24.1934L18.9414 23.1287C18.1023 22.2488 16.7419 22.2488 15.9028 23.1287Z" stroke="#FAF6F3" stroke-width="3" stroke-linecap="round" stroke-linejoin="round"/>
<path d="M19.8618 27.2821L14.8837 32.503C14.0446 33.383 14.0446 34.8098 14.8837 35.6897L15.8988 36.7543C16.7379 37.6343 18.0983 37.6343 18.9374 36.7543L23.9155 31.5335C24.7546 30.6534 24.7546 29.2267 23.9155 28.3467L22.9004 27.2821C22.0613 26.4021 20.7009 26.4021 19.8618 27.2821Z" stroke="#FAF6F3" stroke-width="3" stroke-linecap="round" stroke-linejoin="round"/>
<path d="M23.9165 31.5336L18.9384 36.7544C18.0993 37.6344 18.0993 39.0612 18.9384 39.9412L19.9535 41.0058C20.7926 41.8858 22.153 41.8858 22.992 41.0058L27.9702 35.7849C28.8093 34.905 28.8093 33.4782 27.9702 32.5982L26.955 31.5336C26.116 30.6535 24.7556 30.6535 23.9165 31.5336Z" stroke="#FAF6F3" stroke-width="3" stroke-linecap="round" stroke-linejoin="round"/>
<path d="M31.6663 40.4109L28.9421 43.2681C28.676 43.5473 28.3599 43.7687 28.0122 43.9197C27.6644 44.0709 27.2917 44.1486 26.9153 44.1486C26.5389 44.1486 26.1661 44.0709 25.8183 43.9197C25.4706 43.7687 25.1546 43.5473 24.8884 43.2681C24.6222 42.9889 24.4111 42.6576 24.267 42.2928C24.1229 41.9281 24.0488 41.5372 24.0488 41.1424C24.0488 40.7476 24.1229 40.3567 24.267 39.992C24.4111 39.6272 24.6222 39.2958 24.8884 39.0167L27.6127 36.1595C27.8789 35.8804 28.1949 35.659 28.5426 35.5079C28.8904 35.3568 29.2631 35.2791 29.6395 35.2791C30.016 35.2791 30.3887 35.3568 30.7365 35.5079C31.0843 35.659 31.4002 35.8804 31.6664 36.1595C31.9326 36.4387 32.1437 36.7701 32.2878 37.1348C32.4319 37.4995 32.506 37.8905 32.506 38.2853C32.506 38.68 32.4319 39.0709 32.2878 39.4357C32.1437 39.8004 31.9324 40.1318 31.6663 40.4109Z" stroke="#FAF6F3" stroke-width="3" stroke-linecap="round" stroke-linejoin="round"/>
<path d="M32.9453 37.16C33.1206 37.2072 34.4904 37.5489 35.5955 36.6355C36.6259 35.7839 36.9961 34.197 36.4455 32.7547C37.0096 32.9513 37.6148 32.9795 38.1933 32.836C38.7718 32.6925 39.3008 32.383 39.7212 31.9422C40.1415 31.5013 40.4366 30.9466 40.5735 30.3399C40.7103 29.7332 40.6835 29.0985 40.4961 28.5069C41.1091 28.6354 42.6421 29.0058 43.7243 27.8951C45.1996 26.3808 44.7149 24.3947 43.7437 23.364" stroke="#FAF6F3" stroke-width="3" stroke-linecap="round" stroke-linejoin="round"/>
<path d="M36.4447 32.7547L27.5547 23.5364" stroke="#FAF6F3" stroke-width="3" stroke-miterlimit="10" stroke-linecap="round"/>
<path d="M40.4962 28.507L31.7241 19.3105" stroke="#FAF6F3" stroke-width="3" stroke-miterlimit="10" stroke-linecap="round"/>
<path d="M10.7646 31.3821C9.57132 30.2028 6.31204 26.7878 5.23488 25.4864C2.91172 22.6797 1.98633 18.7503 2.48607 15.0703C2.50251 14.95 2.52075 14.8285 2.54082 14.7059C3.22171 10.5525 5.63358 8.05503 6.81408 6.8329C8.75569 4.8116 11.1627 3.35121 13.8013 2.59354C14.9829 2.2743 18.0413 1.49256 21.597 2.71469C22.789 3.12595 23.9173 3.71764 24.9462 4.471" stroke="#FAF6F3" stroke-width="3" stroke-miterlimit="10"/>
</g>
<defs>
<clipPath id="clip0_2071_183">
<rect width="48.8755" height="45.2281" fill="white" transform="translate(0.963867 0.599365)"/>
</clipPath>
</defs>
</svg>
