<svg width="48" height="47" viewBox="0 0 48 47" fill="none" xmlns="http://www.w3.org/2000/svg">
<g clip-path="url(#clip0_2071_170)">
<path d="M37.5 26.4375H31.095C29.9715 26.4375 29.235 27.7006 29.8005 28.6494C29.9152 28.8449 29.9825 29.0636 29.997 29.2886C30.0115 29.5135 29.973 29.7388 29.8843 29.9468C29.7957 30.1549 29.6593 30.3402 29.4858 30.4883C29.3123 30.6365 29.1062 30.7435 28.8837 30.8012C28.6611 30.8589 28.428 30.8656 28.2023 30.8208C27.9767 30.7761 27.7646 30.6811 27.5824 30.5432C27.4003 30.4053 27.253 30.2282 27.152 30.0256C27.051 29.8231 26.999 29.6004 27 29.375C27 29.1209 27.0705 28.8624 27.1995 28.6494C27.7755 27.6948 27.024 26.4375 25.905 26.4375H21V23.5C23.481 23.5 25.5 21.5231 25.5 19.0938C25.5 16.6644 23.481 14.6875 21 14.6875V10.2812C21 9.89171 20.842 9.51813 20.5607 9.24269C20.2794 8.96724 19.8978 8.8125 19.5 8.8125H4.5C2.019 8.8125 0 10.7894 0 13.2188V42.5938C0 45.0231 2.019 47 4.5 47H34.5C36.981 47 39 45.0231 39 42.5938V27.9062C39 27.5167 38.842 27.1431 38.5607 26.8677C38.2794 26.5922 37.8978 26.4375 37.5 26.4375ZM3 13.2188C3 12.408 3.6735 11.75 4.5 11.75H18V16.5528C18 17.6588 19.2825 18.3755 20.2575 17.8203C20.4572 17.707 20.681 17.6402 20.9113 17.6253C21.1417 17.6104 21.3725 17.6477 21.5857 17.7343C21.799 17.8209 21.989 17.9545 22.1409 18.1246C22.2929 18.2948 22.4027 18.497 22.4619 18.7155C22.521 18.934 22.5279 19.163 22.482 19.3845C22.4362 19.6061 22.3387 19.8143 22.1973 19.9929C22.0559 20.1716 21.8743 20.3159 21.6666 20.4147C21.459 20.5135 21.2309 20.5641 21 20.5625C20.7393 20.5625 20.4831 20.4952 20.2575 20.3672C19.2795 19.8032 18 20.5331 18 21.6347V26.4375H15C15 24.0082 12.981 22.0312 10.5 22.0312C8.019 22.0312 6 24.0082 6 26.4375H3V13.2188ZM18 44.0625H4.5C3.6735 44.0625 3 43.4045 3 42.5938V29.375H7.905C9.0255 29.375 9.765 28.1104 9.1995 27.1631C9.06923 26.9425 9.00043 26.6923 9 26.4375C9.01728 26.0593 9.18286 25.7023 9.46227 25.4406C9.74169 25.179 10.1134 25.033 10.5 25.033C10.8866 25.033 11.2583 25.179 11.5377 25.4406C11.8171 25.7023 11.9827 26.0593 12 26.4375C11.9996 26.6923 11.9308 26.9425 11.8005 27.1631C11.232 28.1119 11.979 29.375 13.095 29.375H18V32.3125C15.519 32.3125 13.5 34.2894 13.5 36.7188C13.5 39.1481 15.519 41.125 18 41.125V44.0625ZM36 42.5938C36 42.9833 35.842 43.3569 35.5607 43.6323C35.2794 43.9078 34.8978 44.0625 34.5 44.0625H21V39.2597C21 38.1478 19.725 37.4326 18.7425 37.9922C18.5428 38.1055 18.319 38.1723 18.0887 38.1872C17.8583 38.2021 17.6275 38.1648 17.4143 38.0782C17.201 37.9916 17.011 37.858 16.8591 37.6879C16.7071 37.5177 16.5973 37.3155 16.5381 37.097C16.479 36.8785 16.4721 36.6495 16.518 36.428C16.5638 36.2064 16.6613 35.9982 16.8027 35.8196C16.9441 35.6409 17.1257 35.4966 17.3334 35.3978C17.541 35.299 17.7691 35.2484 18 35.25C18.2595 35.25 18.5235 35.319 18.7425 35.4453C19.722 36.0093 21 35.2867 21 34.1778V29.375H24C24 31.8043 26.019 33.7812 28.5 33.7812C30.981 33.7812 33 31.8043 33 29.375H36V42.5938Z" fill="#FAF6F3"/>
<path d="M43.5001 0H28.5001C28.1022 0 27.7207 0.154743 27.4394 0.430187C27.1581 0.705631 27.0001 1.07921 27.0001 1.46875V7.74031C27.0001 8.68031 28.0351 9.39119 28.9411 9.12975C29.3101 9.02253 29.5981 8.8125 30.0001 8.8125C30.3979 8.8125 30.7794 8.96724 31.0607 9.24269C31.342 9.51813 31.5001 9.89171 31.5001 10.2812C31.5001 10.6708 31.342 11.0444 31.0607 11.3198C30.7794 11.5953 30.3979 11.75 30.0001 11.75C29.7398 11.7499 29.4842 11.6825 29.2591 11.5547C28.2991 11.0083 26.9971 11.7456 26.9971 12.8281V19.0996C26.9971 19.9118 27.6676 20.5684 28.5271 20.5625H33.0001C33.0001 22.9918 35.0191 24.9688 37.5001 24.9688C39.9811 24.9688 42.0001 22.9918 42.0001 20.5625H46.5001C46.8979 20.5625 47.2794 20.4078 47.5607 20.1323C47.842 19.8569 48.0001 19.4833 48.0001 19.0938V4.40625C48.0001 1.97694 45.9811 0 43.5001 0ZM45.0001 17.625H40.0951C39.2746 17.625 38.5306 18.4181 38.6206 19.2274C38.6731 19.693 39.0001 20.0896 39.0001 20.5625C39.0001 20.952 38.842 21.3256 38.5607 21.6011C38.2794 21.8765 37.8979 22.0312 37.5001 22.0312C37.1022 22.0312 36.7207 21.8765 36.4394 21.6011C36.1581 21.3256 36.0001 20.952 36.0001 20.5625C36.0001 20.163 36.2191 19.8222 36.3286 19.4492C36.5836 18.5782 35.8321 17.625 34.9036 17.625H30.0001L30.0016 14.6875C32.4826 14.6875 34.5016 12.7106 34.5016 10.2812C34.5016 7.85194 32.4826 5.875 30.0016 5.875V2.9375H43.5016C43.8994 2.9375 44.2809 3.09224 44.5622 3.36769C44.8435 3.64313 45.0016 4.01671 45.0016 4.40625L45.0001 17.625Z" fill="#FAF6F3"/>
</g>
<defs>
<clipPath id="clip0_2071_170">
<rect width="48" height="47" fill="white"/>
</clipPath>
</defs>
</svg>
