<svg width="61" height="62" viewBox="0 0 61 62" fill="none" xmlns="http://www.w3.org/2000/svg">
<g clip-path="url(#clip0_2071_178)">
<path d="M54.8945 24.065C53.4324 24.065 50.7967 24.6104 48.1574 27.7343C44.9603 24.3813 40.3864 22.2779 35.4414 22.2779H21.2617C20.6008 22.2779 19.9348 22.3233 19.2224 22.4175C16.2955 17.709 10.9844 17.9288 8.40777 18.7927C8.12247 18.888 7.86599 19.0562 7.66284 19.2811C7.45968 19.5059 7.31664 19.78 7.24738 20.0771C7.17728 20.3739 7.1834 20.684 7.26516 20.9777C7.34692 21.2714 7.50157 21.5388 7.71426 21.7543C8.72711 22.784 9.52703 24.3877 10.0557 26.4315C7.96359 28.2102 6.30693 30.4591 5.21652 33.0005H1.92578C0.95418 33.0005 0.167969 33.7999 0.167969 34.7876V45.5103C0.167969 46.4981 0.95418 47.4166 1.92578 47.4166H5.21828C7.05508 51.6627 10.4883 55.038 14.7231 56.7762L14.2545 59.6331C14.2122 59.8891 14.2255 60.1514 14.2934 60.4016C14.3613 60.6518 14.4822 60.8839 14.6475 61.0816C14.8123 61.2798 15.0176 61.439 15.2492 61.5481C15.4807 61.6573 15.7329 61.7137 15.9882 61.7134H23.0194C23.4356 61.7136 23.8384 61.5635 24.1559 61.2899C24.4734 61.0163 24.6851 60.637 24.7532 60.2195L25.0949 58.1392H31.6082L31.9498 60.2195C32.0179 60.637 32.2296 61.0163 32.5471 61.2899C32.8646 61.5635 33.2674 61.7136 33.6836 61.7134H40.7148C41.8093 61.7134 42.6271 60.7107 42.4486 59.6331L41.9818 56.7797C48.6439 54.0781 53.1367 47.5069 53.1367 40.149C53.1367 36.6511 52.1057 33.409 50.3901 30.6501C51.8246 28.7348 53.3939 27.6392 54.8945 27.6392C55.9005 27.6392 56.6523 28.1104 56.6523 28.5328C56.6523 29.2221 55.9725 29.6515 55.9691 29.6532C55.1212 30.1366 54.8191 31.2256 55.2929 32.086C55.7676 32.9461 56.8367 33.2544 57.6858 32.7736C58.6076 32.2484 60.168 30.7649 60.168 28.5328C60.168 26.0266 57.8522 24.065 54.8945 24.065ZM39.4943 53.8809C38.6498 54.141 38.1245 54.9996 38.2704 55.8844L38.6395 58.1392H35.1736L34.832 56.0589C34.7639 55.6414 34.5523 55.2621 34.2347 54.9885C33.9172 54.7149 33.5145 54.5648 33.0982 54.565H23.6049C23.1887 54.5648 22.7859 54.7149 22.4684 54.9885C22.1509 55.2621 21.9392 55.6414 21.8711 56.0589L21.5295 58.1392H18.0637L18.4327 55.8844C18.5786 54.9995 18.0534 54.1409 17.2088 53.8809C12.9653 52.5737 9.54754 49.1456 8.06606 44.9117C7.94432 44.5641 7.71977 44.2632 7.42321 44.0504C7.12665 43.8376 6.77259 43.7233 6.40961 43.7232H3.68359V36.5748H6.40961C6.77261 36.5746 7.12669 36.4604 7.42328 36.2476C7.71986 36.0348 7.94443 35.7339 8.06617 35.3862C9.02231 32.6497 10.7493 30.2955 13.0581 28.578C13.3289 28.3763 13.5373 28.1001 13.6586 27.7819C13.78 27.4637 13.8093 27.1168 13.7431 26.7822C13.3671 24.9009 12.8178 23.2639 12.0986 21.8851C13.6693 21.9898 15.5678 22.6896 16.6819 25.1346C17.0235 25.8799 17.8183 26.3075 18.6096 26.1382C19.6087 25.9429 20.4515 25.8521 21.2617 25.8521H35.4414C43.1954 25.8521 49.6211 32.2658 49.6211 40.149C49.6211 46.4475 45.4819 52.0379 39.4943 53.8809Z" fill="#FAF6F3"/>
<path d="M15.9883 36.5747C16.9591 36.5747 17.7461 35.7746 17.7461 34.7876C17.7461 33.8006 16.9591 33.0005 15.9883 33.0005C15.0175 33.0005 14.2305 33.8006 14.2305 34.7876C14.2305 35.7746 15.0175 36.5747 15.9883 36.5747Z" fill="#FAF6F3"/>
<path d="M30.168 18.7036C35.014 18.7036 38.957 14.6949 38.957 9.76807C38.957 4.84124 35.014 0.713379 30.168 0.713379C25.3219 0.713379 21.2617 4.84124 21.2617 9.76807C21.2617 14.6949 25.3219 18.7036 30.168 18.7036ZM30.168 4.2876C33.0759 4.2876 35.4414 6.81171 35.4414 9.76807C35.4414 12.7244 33.0759 15.1294 30.168 15.1294C27.2601 15.1294 24.7773 12.7244 24.7773 9.76807C24.7773 6.81171 27.2601 4.2876 30.168 4.2876ZM37.1992 29.4263H23.0195C22.0479 29.4263 21.2617 30.2256 21.2617 31.2134C21.2617 32.2012 22.0479 33.0005 23.0195 33.0005H37.1992C38.1708 33.0005 38.957 32.2012 38.957 31.2134C38.957 30.2256 38.1708 29.4263 37.1992 29.4263Z" fill="#FAF6F3"/>
</g>
<defs>
<clipPath id="clip0_2071_178">
<rect width="60" height="61" fill="white" transform="translate(0.167969 0.713379)"/>
</clipPath>
</defs>
</svg>
